<svg width="123" height="48" viewBox="0 0 123 48" fill="none" xmlns="http://www.w3.org/2000/svg">
<g clip-path="url(#clip0_109038_245)">
<path d="M5.544 16.196C3.96667 16.196 2.76267 15.7573 1.932 14.88C1.11067 14.0027 0.7 12.7567 0.7 11.142C0.7 10.3393 0.826 9.62533 1.078 9C1.33 8.36533 1.67533 7.83333 2.114 7.404C2.55267 6.96533 3.07533 6.634 3.682 6.41C4.28867 6.186 4.94667 6.074 5.656 6.074C6.06667 6.074 6.44 6.10667 6.776 6.172C7.112 6.228 7.406 6.298 7.658 6.382C7.91 6.45667 8.12 6.536 8.288 6.62C8.456 6.704 8.57733 6.76933 8.652 6.816L8.022 8.58C7.72333 8.42133 7.37333 8.286 6.972 8.174C6.58 8.062 6.132 8.006 5.628 8.006C5.292 8.006 4.96067 8.062 4.634 8.174C4.31667 8.286 4.032 8.468 3.78 8.72C3.53733 8.96267 3.34133 9.28 3.192 9.672C3.04267 10.064 2.968 10.54 2.968 11.1C2.968 11.548 3.01467 11.968 3.108 12.36C3.21067 12.7427 3.36933 13.074 3.584 13.354C3.808 13.634 4.09733 13.858 4.452 14.026C4.80667 14.1847 5.236 14.264 5.74 14.264C6.05733 14.264 6.342 14.2453 6.594 14.208C6.846 14.1707 7.07 14.1287 7.266 14.082C7.462 14.026 7.63467 13.9653 7.784 13.9C7.93333 13.8347 8.06867 13.774 8.19 13.718L8.792 15.468C8.484 15.6547 8.05 15.8227 7.49 15.972C6.93 16.1213 6.28133 16.196 5.544 16.196ZM13.0088 14.544C13.2142 14.544 13.4102 14.5393 13.5968 14.53C13.7835 14.5207 13.9328 14.5067 14.0448 14.488V12.906C13.9608 12.8873 13.8348 12.8687 13.6668 12.85C13.4988 12.8313 13.3448 12.822 13.2048 12.822C13.0088 12.822 12.8222 12.836 12.6448 12.864C12.4768 12.8827 12.3275 12.9247 12.1968 12.99C12.0662 13.0553 11.9635 13.144 11.8888 13.256C11.8142 13.368 11.7768 13.508 11.7768 13.676C11.7768 14.0027 11.8842 14.2313 12.0988 14.362C12.3228 14.4833 12.6262 14.544 13.0088 14.544ZM12.8408 8.44C13.4568 8.44 13.9702 8.51 14.3808 8.65C14.7915 8.79 15.1182 8.99067 15.3608 9.252C15.6128 9.51333 15.7902 9.83067 15.8928 10.204C15.9955 10.5773 16.0468 10.9927 16.0468 11.45V15.79C15.7482 15.8553 15.3328 15.93 14.8008 16.014C14.2688 16.1073 13.6248 16.154 12.8688 16.154C12.3928 16.154 11.9588 16.112 11.5668 16.028C11.1842 15.944 10.8528 15.8087 10.5728 15.622C10.2928 15.426 10.0782 15.174 9.92884 14.866C9.77951 14.558 9.70484 14.18 9.70484 13.732C9.70484 13.3027 9.78884 12.9387 9.95684 12.64C10.1342 12.3413 10.3675 12.1033 10.6568 11.926C10.9462 11.7487 11.2775 11.6227 11.6508 11.548C12.0242 11.464 12.4115 11.422 12.8128 11.422C13.0835 11.422 13.3215 11.436 13.5268 11.464C13.7415 11.4827 13.9142 11.5107 14.0448 11.548V11.352C14.0448 10.9973 13.9375 10.7127 13.7228 10.498C13.5082 10.2833 13.1348 10.176 12.6028 10.176C12.2482 10.176 11.8982 10.204 11.5528 10.26C11.2075 10.3067 10.9088 10.3767 10.6568 10.47L10.3908 8.79C10.5122 8.75267 10.6615 8.71533 10.8388 8.678C11.0255 8.63133 11.2262 8.594 11.4408 8.566C11.6555 8.52867 11.8795 8.50067 12.1128 8.482C12.3555 8.454 12.5982 8.44 12.8408 8.44ZM20.8731 16.14C20.2665 16.1307 19.7718 16.0653 19.3891 15.944C19.0158 15.8227 18.7171 15.6547 18.4931 15.44C18.2785 15.216 18.1291 14.95 18.0451 14.642C17.9705 14.3247 17.9331 13.97 17.9331 13.578V5.472L20.0191 5.136V13.158C20.0191 13.3447 20.0331 13.5127 20.0611 13.662C20.0891 13.8113 20.1405 13.9373 20.2151 14.04C20.2991 14.1427 20.4158 14.2267 20.5651 14.292C20.7145 14.3573 20.9151 14.3993 21.1671 14.418L20.8731 16.14ZM25.3028 16.14C24.6961 16.1307 24.2015 16.0653 23.8188 15.944C23.4455 15.8227 23.1468 15.6547 22.9228 15.44C22.7081 15.216 22.5588 14.95 22.4748 14.642C22.4001 14.3247 22.3628 13.97 22.3628 13.578V5.472L24.4488 5.136V13.158C24.4488 13.3447 24.4628 13.5127 24.4908 13.662C24.5188 13.8113 24.5701 13.9373 24.6448 14.04C24.7288 14.1427 24.8455 14.2267 24.9948 14.292C25.1441 14.3573 25.3448 14.3993 25.5968 14.418L25.3028 16.14ZM36.4418 15.748C36.0871 15.8507 35.6298 15.944 35.0698 16.028C34.5098 16.1213 33.9218 16.168 33.3058 16.168C32.6804 16.168 32.1578 16.084 31.7378 15.916C31.3271 15.748 31.0004 15.5147 30.7578 15.216C30.5151 14.908 30.3424 14.544 30.2398 14.124C30.1371 13.704 30.0858 13.242 30.0858 12.738V8.636H32.1718V12.486C32.1718 13.158 32.2604 13.6433 32.4378 13.942C32.6151 14.2407 32.9464 14.39 33.4318 14.39C33.5811 14.39 33.7398 14.3853 33.9078 14.376C34.0758 14.3573 34.2251 14.3387 34.3558 14.32V8.636H36.4418V15.748ZM40.5139 14.502C40.8966 14.502 41.1673 14.4647 41.3259 14.39C41.4846 14.3153 41.5639 14.1707 41.5639 13.956C41.5639 13.788 41.4613 13.6433 41.2559 13.522C41.0506 13.3913 40.7379 13.2467 40.3179 13.088C39.9913 12.9667 39.6926 12.8407 39.4219 12.71C39.1606 12.5793 38.9366 12.4253 38.7499 12.248C38.5633 12.0613 38.4186 11.842 38.3159 11.59C38.2133 11.338 38.1619 11.0347 38.1619 10.68C38.1619 9.98933 38.4186 9.44333 38.9319 9.042C39.4453 8.64067 40.1499 8.44 41.0459 8.44C41.4939 8.44 41.9233 8.482 42.3339 8.566C42.7446 8.64067 43.0713 8.72467 43.3139 8.818L42.9499 10.442C42.7073 10.358 42.4413 10.2833 42.1519 10.218C41.8719 10.1527 41.5546 10.12 41.1999 10.12C40.5466 10.12 40.2199 10.302 40.2199 10.666C40.2199 10.75 40.2339 10.8247 40.2619 10.89C40.2899 10.9553 40.3459 11.0207 40.4299 11.086C40.5139 11.142 40.6259 11.2073 40.7659 11.282C40.9153 11.3473 41.1019 11.422 41.3259 11.506C41.7833 11.674 42.1613 11.842 42.4599 12.01C42.7586 12.1687 42.9919 12.346 43.1599 12.542C43.3373 12.7287 43.4586 12.9387 43.5239 13.172C43.5986 13.4053 43.6359 13.676 43.6359 13.984C43.6359 14.712 43.3606 15.2627 42.8099 15.636C42.2686 16.0093 41.4986 16.196 40.4999 16.196C39.8466 16.196 39.3006 16.14 38.8619 16.028C38.4326 15.916 38.1339 15.8227 37.9659 15.748L38.3159 14.054C38.6706 14.194 39.0346 14.306 39.4079 14.39C39.7813 14.4647 40.1499 14.502 40.5139 14.502Z" fill="#424551"/>
<path d="M3.078 35.618C3.078 37.154 3.3 38.576 3.744 39.884C4.188 41.192 4.842 42.404 5.706 43.52L4.518 44.33C3.582 43.19 2.826 41.882 2.25 40.406C1.686 38.918 1.404 37.322 1.404 35.618C1.404 33.914 1.686 32.324 2.25 30.848C2.826 29.36 3.582 28.046 4.518 26.906L5.706 27.716C4.842 28.832 4.188 30.044 3.744 31.352C3.3 32.66 3.078 34.082 3.078 35.618ZM6.55594 36.68C6.78394 36.152 7.09594 35.54 7.49194 34.844C7.88794 34.136 8.33194 33.41 8.82394 32.666C9.32794 31.922 9.86194 31.19 10.4259 30.47C11.0019 29.75 11.5779 29.102 12.1539 28.526H13.7559V36.446H15.2319V37.814H13.7559V41H12.1359V37.814H6.55594V36.68ZM12.1359 30.506C11.7759 30.89 11.4099 31.322 11.0379 31.802C10.6779 32.27 10.3239 32.762 9.97594 33.278C9.62794 33.794 9.29794 34.322 8.98594 34.862C8.68594 35.402 8.41594 35.93 8.17594 36.446H12.1359V30.506ZM16.8961 34.754C16.8961 32.666 17.2621 31.058 17.9941 29.93C18.7381 28.802 19.7641 28.238 21.0721 28.238C22.3801 28.238 23.4001 28.802 24.1321 29.93C24.8761 31.058 25.2481 32.666 25.2481 34.754C25.2481 36.842 24.8761 38.45 24.1321 39.578C23.4001 40.706 22.3801 41.27 21.0721 41.27C19.7641 41.27 18.7381 40.706 17.9941 39.578C17.2621 38.45 16.8961 36.842 16.8961 34.754ZM23.4841 34.754C23.4841 34.07 23.4421 33.422 23.3581 32.81C23.2861 32.198 23.1541 31.664 22.9621 31.208C22.7821 30.752 22.5361 30.392 22.2241 30.128C21.9121 29.852 21.5281 29.714 21.0721 29.714C20.6161 29.714 20.2321 29.852 19.9201 30.128C19.6081 30.392 19.3561 30.752 19.1641 31.208C18.9841 31.664 18.8521 32.198 18.7681 32.81C18.6961 33.422 18.6601 34.07 18.6601 34.754C18.6601 35.438 18.6961 36.086 18.7681 36.698C18.8521 37.31 18.9841 37.844 19.1641 38.3C19.3561 38.756 19.6081 39.122 19.9201 39.398C20.2321 39.662 20.6161 39.794 21.0721 39.794C21.5281 39.794 21.9121 39.662 22.2241 39.398C22.5361 39.122 22.7821 38.756 22.9621 38.3C23.1541 37.844 23.2861 37.31 23.3581 36.698C23.4421 36.086 23.4841 35.438 23.4841 34.754ZM29.7383 33.332C31.5503 33.404 32.8763 33.8 33.7163 34.52C34.5683 35.24 34.9943 36.218 34.9943 37.454C34.9943 38.006 34.8983 38.516 34.7063 38.984C34.5263 39.452 34.2443 39.854 33.8603 40.19C33.4883 40.526 33.0143 40.79 32.4383 40.982C31.8623 41.174 31.1783 41.27 30.3863 41.27C30.0743 41.27 29.7563 41.246 29.4323 41.198C29.1083 41.15 28.8083 41.09 28.5322 41.018C28.2563 40.946 28.0103 40.874 27.7943 40.802C27.5783 40.73 27.4223 40.67 27.3263 40.622L27.6503 39.164C27.8543 39.26 28.1843 39.386 28.6403 39.542C29.1083 39.698 29.6783 39.776 30.3503 39.776C30.8903 39.776 31.3403 39.716 31.7003 39.596C32.0723 39.476 32.3723 39.314 32.6003 39.11C32.8283 38.906 32.9903 38.672 33.0863 38.408C33.1943 38.132 33.2483 37.844 33.2483 37.544C33.2483 37.088 33.1703 36.686 33.0143 36.338C32.8583 35.978 32.5823 35.678 32.1863 35.438C31.7903 35.198 31.2623 35.018 30.6023 34.898C29.9423 34.766 29.1083 34.7 28.1003 34.7C28.1723 34.112 28.2263 33.56 28.2623 33.044C28.3103 32.528 28.3523 32.024 28.3883 31.532C28.4243 31.04 28.4543 30.554 28.4783 30.074C28.5023 29.582 28.5263 29.066 28.5503 28.526H34.5623V29.948H30.0083C29.9963 30.128 29.9783 30.374 29.9543 30.686C29.9303 30.986 29.9063 31.304 29.8823 31.64C29.8583 31.964 29.8343 32.282 29.8103 32.594C29.7863 32.906 29.7623 33.152 29.7383 33.332ZM39.0704 35.618C39.0704 34.082 38.8484 32.66 38.4044 31.352C37.9604 30.044 37.3064 28.832 36.4424 27.716L37.6304 26.906C38.5664 28.046 39.3164 29.36 39.8804 30.848C40.4564 32.324 40.7444 33.914 40.7444 35.618C40.7444 37.322 40.4564 38.918 39.8804 40.406C39.3164 41.882 38.5664 43.19 37.6304 44.33L36.4424 43.52C37.3064 42.404 37.9604 41.192 38.4044 39.884C38.8484 38.576 39.0704 37.154 39.0704 35.618ZM49.9004 33.332C51.7124 33.404 53.0384 33.8 53.8784 34.52C54.7304 35.24 55.1564 36.218 55.1564 37.454C55.1564 38.006 55.0604 38.516 54.8684 38.984C54.6884 39.452 54.4064 39.854 54.0224 40.19C53.6504 40.526 53.1764 40.79 52.6004 40.982C52.0244 41.174 51.3404 41.27 50.5484 41.27C50.2364 41.27 49.9184 41.246 49.5944 41.198C49.2704 41.15 48.9704 41.09 48.6944 41.018C48.4184 40.946 48.1724 40.874 47.9564 40.802C47.7404 40.73 47.5844 40.67 47.4884 40.622L47.8124 39.164C48.0164 39.26 48.3464 39.386 48.8024 39.542C49.2704 39.698 49.8404 39.776 50.5124 39.776C51.0524 39.776 51.5024 39.716 51.8624 39.596C52.2344 39.476 52.5344 39.314 52.7624 39.11C52.9904 38.906 53.1524 38.672 53.2484 38.408C53.3564 38.132 53.4104 37.844 53.4104 37.544C53.4104 37.088 53.3324 36.686 53.1764 36.338C53.0204 35.978 52.7444 35.678 52.3484 35.438C51.9524 35.198 51.4244 35.018 50.7644 34.898C50.1044 34.766 49.2704 34.7 48.2624 34.7C48.3344 34.112 48.3884 33.56 48.4244 33.044C48.4724 32.528 48.5144 32.024 48.5504 31.532C48.5864 31.04 48.6164 30.554 48.6404 30.074C48.6644 29.582 48.6884 29.066 48.7124 28.526H54.7244V29.948H50.1704C50.1584 30.128 50.1404 30.374 50.1164 30.686C50.0924 30.986 50.0684 31.304 50.0444 31.64C50.0204 31.964 49.9964 32.282 49.9724 32.594C49.9484 32.906 49.9244 33.152 49.9004 33.332ZM60.0605 33.332C61.8725 33.404 63.1985 33.8 64.0385 34.52C64.8905 35.24 65.3165 36.218 65.3165 37.454C65.3165 38.006 65.2205 38.516 65.0285 38.984C64.8485 39.452 64.5665 39.854 64.1825 40.19C63.8105 40.526 63.3365 40.79 62.7605 40.982C62.1845 41.174 61.5005 41.27 60.7085 41.27C60.3965 41.27 60.0785 41.246 59.7545 41.198C59.4305 41.15 59.1305 41.09 58.8545 41.018C58.5785 40.946 58.3325 40.874 58.1165 40.802C57.9005 40.73 57.7445 40.67 57.6485 40.622L57.9725 39.164C58.1765 39.26 58.5065 39.386 58.9625 39.542C59.4305 39.698 60.0005 39.776 60.6725 39.776C61.2125 39.776 61.6625 39.716 62.0225 39.596C62.3945 39.476 62.6945 39.314 62.9225 39.11C63.1505 38.906 63.3125 38.672 63.4085 38.408C63.5165 38.132 63.5705 37.844 63.5705 37.544C63.5705 37.088 63.4925 36.686 63.3365 36.338C63.1805 35.978 62.9045 35.678 62.5085 35.438C62.1125 35.198 61.5845 35.018 60.9245 34.898C60.2645 34.766 59.4305 34.7 58.4225 34.7C58.4945 34.112 58.5485 33.56 58.5845 33.044C58.6325 32.528 58.6745 32.024 58.7105 31.532C58.7465 31.04 58.7765 30.554 58.8005 30.074C58.8245 29.582 58.8485 29.066 58.8725 28.526H64.8845V29.948H60.3305C60.3185 30.128 60.3005 30.374 60.2765 30.686C60.2525 30.986 60.2285 31.304 60.2045 31.64C60.1805 31.964 60.1565 32.282 60.1325 32.594C60.1085 32.906 60.0845 33.152 60.0605 33.332ZM70.2207 33.332C72.0327 33.404 73.3587 33.8 74.1987 34.52C75.0507 35.24 75.4767 36.218 75.4767 37.454C75.4767 38.006 75.3807 38.516 75.1887 38.984C75.0087 39.452 74.7267 39.854 74.3427 40.19C73.9707 40.526 73.4967 40.79 72.9207 40.982C72.3447 41.174 71.6607 41.27 70.8687 41.27C70.5567 41.27 70.2387 41.246 69.9147 41.198C69.5907 41.15 69.2907 41.09 69.0147 41.018C68.7387 40.946 68.4927 40.874 68.2767 40.802C68.0607 40.73 67.9047 40.67 67.8087 40.622L68.1327 39.164C68.3367 39.26 68.6667 39.386 69.1227 39.542C69.5907 39.698 70.1607 39.776 70.8327 39.776C71.3727 39.776 71.8227 39.716 72.1827 39.596C72.5547 39.476 72.8547 39.314 73.0827 39.11C73.3107 38.906 73.4727 38.672 73.5687 38.408C73.6767 38.132 73.7307 37.844 73.7307 37.544C73.7307 37.088 73.6527 36.686 73.4967 36.338C73.3407 35.978 73.0647 35.678 72.6687 35.438C72.2727 35.198 71.7447 35.018 71.0847 34.898C70.4247 34.766 69.5907 34.7 68.5827 34.7C68.6547 34.112 68.7087 33.56 68.7447 33.044C68.7927 32.528 68.8347 32.024 68.8707 31.532C68.9067 31.04 68.9367 30.554 68.9607 30.074C68.9847 29.582 69.0087 29.066 69.0327 28.526H75.0447V29.948H70.4907C70.4787 30.128 70.4607 30.374 70.4367 30.686C70.4127 30.986 70.3887 31.304 70.3647 31.64C70.3407 31.964 70.3167 32.282 70.2927 32.594C70.2687 32.906 70.2447 33.152 70.2207 33.332ZM77.2668 34.826H81.7128V36.392H77.2668V34.826ZM83.0777 34.754C83.0777 32.666 83.4437 31.058 84.1757 29.93C84.9197 28.802 85.9457 28.238 87.2537 28.238C88.5617 28.238 89.5817 28.802 90.3137 29.93C91.0577 31.058 91.4297 32.666 91.4297 34.754C91.4297 36.842 91.0577 38.45 90.3137 39.578C89.5817 40.706 88.5617 41.27 87.2537 41.27C85.9457 41.27 84.9197 40.706 84.1757 39.578C83.4437 38.45 83.0777 36.842 83.0777 34.754ZM89.6657 34.754C89.6657 34.07 89.6237 33.422 89.5397 32.81C89.4677 32.198 89.3357 31.664 89.1437 31.208C88.9637 30.752 88.7177 30.392 88.4057 30.128C88.0937 29.852 87.7097 29.714 87.2537 29.714C86.7977 29.714 86.4137 29.852 86.1017 30.128C85.7897 30.392 85.5377 30.752 85.3457 31.208C85.1657 31.664 85.0337 32.198 84.9497 32.81C84.8777 33.422 84.8417 34.07 84.8417 34.754C84.8417 35.438 84.8777 36.086 84.9497 36.698C85.0337 37.31 85.1657 37.844 85.3457 38.3C85.5377 38.756 85.7897 39.122 86.1017 39.398C86.4137 39.662 86.7977 39.794 87.2537 39.794C87.7097 39.794 88.0937 39.662 88.4057 39.398C88.7177 39.122 88.9637 38.756 89.1437 38.3C89.3357 37.844 89.4677 37.31 89.5397 36.698C89.6237 36.086 89.6657 35.438 89.6657 34.754ZM94.0119 31.1C94.6959 30.836 95.3619 30.5 96.0099 30.092C96.6579 29.672 97.2519 29.15 97.7919 28.526H98.9799V41H97.3059V30.848C97.1619 30.98 96.9819 31.118 96.7659 31.262C96.5619 31.406 96.3339 31.544 96.0819 31.676C95.8419 31.808 95.5839 31.934 95.3079 32.054C95.0439 32.174 94.7859 32.276 94.5339 32.36L94.0119 31.1ZM110.904 31.712C110.904 32.144 110.814 32.564 110.634 32.972C110.466 33.368 110.238 33.764 109.95 34.16C109.662 34.544 109.338 34.928 108.978 35.312C108.618 35.684 108.258 36.05 107.898 36.41C107.694 36.614 107.454 36.854 107.178 37.13C106.914 37.406 106.662 37.694 106.422 37.994C106.182 38.294 105.978 38.582 105.81 38.858C105.654 39.134 105.576 39.374 105.576 39.578H111.318V41H103.758C103.746 40.928 103.74 40.856 103.74 40.784C103.74 40.712 103.74 40.646 103.74 40.586C103.74 40.022 103.83 39.5 104.01 39.02C104.202 38.528 104.448 38.066 104.748 37.634C105.048 37.202 105.384 36.794 105.756 36.41C106.128 36.026 106.494 35.654 106.854 35.294C107.154 35.006 107.436 34.724 107.7 34.448C107.976 34.16 108.216 33.878 108.42 33.602C108.636 33.314 108.804 33.02 108.924 32.72C109.056 32.42 109.122 32.102 109.122 31.766C109.122 31.406 109.062 31.1 108.942 30.848C108.834 30.596 108.684 30.386 108.492 30.218C108.3 30.05 108.072 29.93 107.808 29.858C107.556 29.774 107.286 29.732 106.998 29.732C106.65 29.732 106.332 29.78 106.044 29.876C105.756 29.972 105.498 30.086 105.27 30.218C105.042 30.338 104.85 30.47 104.694 30.614C104.538 30.746 104.418 30.848 104.334 30.92L103.506 29.732C103.614 29.612 103.776 29.468 103.992 29.3C104.208 29.12 104.466 28.952 104.766 28.796C105.066 28.64 105.402 28.508 105.774 28.4C106.146 28.292 106.548 28.238 106.98 28.238C108.288 28.238 109.266 28.544 109.914 29.156C110.574 29.756 110.904 30.608 110.904 31.712ZM121.82 37.76C121.82 38.264 121.73 38.732 121.55 39.164C121.382 39.584 121.124 39.956 120.776 40.28C120.44 40.592 120.014 40.832 119.498 41C118.982 41.18 118.388 41.27 117.716 41.27C116.936 41.27 116.282 41.162 115.754 40.946C115.238 40.718 114.824 40.436 114.512 40.1C114.2 39.764 113.978 39.398 113.846 39.002C113.714 38.594 113.648 38.21 113.648 37.85C113.648 37.502 113.702 37.172 113.81 36.86C113.93 36.536 114.08 36.236 114.26 35.96C114.452 35.684 114.668 35.438 114.908 35.222C115.16 34.994 115.424 34.796 115.7 34.628C114.524 33.956 113.936 32.966 113.936 31.658C113.936 31.202 114.026 30.77 114.206 30.362C114.386 29.942 114.638 29.576 114.962 29.264C115.298 28.952 115.7 28.706 116.168 28.526C116.636 28.334 117.158 28.238 117.734 28.238C118.406 28.238 118.982 28.34 119.462 28.544C119.942 28.748 120.332 29.012 120.632 29.336C120.944 29.648 121.166 29.996 121.298 30.38C121.442 30.764 121.514 31.136 121.514 31.496C121.514 31.844 121.46 32.174 121.352 32.486C121.256 32.786 121.118 33.068 120.938 33.332C120.77 33.596 120.572 33.83 120.344 34.034C120.128 34.238 119.9 34.418 119.66 34.574C121.076 35.246 121.796 36.308 121.82 37.76ZM115.34 37.868C115.34 38.084 115.376 38.312 115.448 38.552C115.532 38.78 115.67 38.996 115.862 39.2C116.054 39.392 116.3 39.554 116.6 39.686C116.9 39.818 117.278 39.884 117.734 39.884C118.142 39.884 118.496 39.824 118.796 39.704C119.108 39.584 119.36 39.434 119.552 39.254C119.744 39.062 119.888 38.846 119.984 38.606C120.08 38.366 120.128 38.12 120.128 37.868C120.128 37.484 120.056 37.148 119.912 36.86C119.768 36.572 119.558 36.32 119.282 36.104C119.018 35.888 118.694 35.708 118.31 35.564C117.938 35.408 117.512 35.276 117.032 35.168C116.492 35.468 116.072 35.84 115.772 36.284C115.484 36.728 115.34 37.256 115.34 37.868ZM119.84 31.478C119.84 31.298 119.798 31.1 119.714 30.884C119.642 30.668 119.522 30.47 119.354 30.29C119.186 30.098 118.97 29.942 118.706 29.822C118.442 29.69 118.118 29.624 117.734 29.624C117.35 29.624 117.02 29.684 116.744 29.804C116.48 29.924 116.264 30.08 116.096 30.272C115.928 30.452 115.802 30.656 115.718 30.884C115.646 31.1 115.61 31.316 115.61 31.532C115.61 31.796 115.658 32.06 115.754 32.324C115.85 32.588 116 32.834 116.204 33.062C116.408 33.29 116.672 33.494 116.996 33.674C117.332 33.854 117.728 33.998 118.184 34.106C118.688 33.806 119.09 33.458 119.39 33.062C119.69 32.654 119.84 32.126 119.84 31.478Z" fill="#1E212C"/>
</g>
<defs>
<clipPath id="clip0_109038_245">
<rect width="123" height="48" fill="white"/>
</clipPath>
</defs>
</svg>
